SplineFontDB: 3.0
FontName: NyStormningSvKr
FullName: Ny Stormning Svart Kursiv
FamilyName: Ny Stormning
Weight: Svart
Copyright: Copyright (c) 2016, Mew Too/Cannot Into Space Fonts, Robert Jablonski/Cannot Into Space Fonts, All Rights Reserved.
Version: 0.90
ItalicAngle: 0
UnderlinePosition: -100
UnderlineWidth: 50
Ascent: 800
Descent: 200
InvalidEm: 0
sfntRevision: 0x0000e666
LayerCount: 2
Layer: 0 0 "Back" 1
Layer: 1 0 "Fore" 0
XUID: [1021 908 -2008021153 9976829]
StyleMap: 0x0000
FSType: 0
OS2Version: 4
OS2_WeightWidthSlopeOnly: 0
OS2_UseTypoMetrics: 1
CreationTime: 1422214609
ModificationTime: 1452319773
PfmFamily: 33
TTFWeight: 900
TTFWidth: 5
LineGap: 90
VLineGap: 0
Panose: 2 0 5 3 0 0 0 0 0 0
OS2TypoAscent: 800
OS2TypoAOffset: 0
OS2TypoDescent: -200
OS2TypoDOffset: 0
OS2TypoLinegap: 90
OS2WinAscent: 904
OS2WinAOffset: 0
OS2WinDescent: 1
OS2WinDOffset: 0
HheadAscent: 904
HheadAOffset: 0
HheadDescent: -1
HheadDOffset: 0
OS2SubXSize: 650
OS2SubYSize: 699
OS2SubXOff: 0
OS2SubYOff: 140
OS2SupXSize: 650
OS2SupYSize: 699
OS2SupXOff: 0
OS2SupYOff: 479
OS2StrikeYSize: 49
OS2StrikeYPos: 258
OS2CapHeight: 860
OS2XHeight: 860
OS2FamilyClass: 2048
OS2Vendor: 'CiSf'
OS2CodePages: 00000001.00000000
OS2UnicodeRanges: 00000007.00000000.00000000.00000000
Lookup: 258 0 0 "'kern' Horizontal Kerning in Latin lookup 0" { "'kern' Horizontal Kerning in Latin lookup 0-1" [100,10,2] } ['kern' ('DFLT' <'dflt' > 'latn' <'dflt' > ) ]
MarkAttachClasses: 1
DEI: 91125

StartChar: .notdef
Encoding: 65536 -1 0
Width: 445
Flags: W
HStem: 0 70<87 367> 473 70<136 416>
LayerCount: 2
Fore
SplineSet
136 473 m 1
 87 70 l 1
 367 70 l 1
 416 473 l 1
 136 473 l 1
428 0 m 1
 8 0 l 1
 75 543 l 1
 495 543 l 1
 428 0 l 1
EndSplineSet
EndChar

StartChar: comma
Encoding: 44 44 2
Width: 210
Flags: W
HStem: 304 196<101.266 198.282>
VStem: 55 190<351.683 454.324>
LayerCount: 2
Fore
SplineSet
137 304 m 0
 85 304 48 349 55 402 c 0
 62 455 109 500 161 500 c 0
 213 500 252 455 245 402 c 0
 238 349 189 304 137 304 c 0
EndSplineSet
EndChar

StartChar: period
Encoding: 46 46 3
Width: 212
Flags: W
HStem: 156 197<85.1094 181.899> 415 197<117.101 213.891>
VStem: 38 223
LayerCount: 2
Fore
SplineSet
121 156 m 0
 69 156 31 201 38 254 c 0
 45 307 93 353 145 353 c 0
 197 353 235 307 228 254 c 0
 221 201 173 156 121 156 c 0
154 415 m 0
 102 415 64 461 71 514 c 0
 78 567 126 612 178 612 c 0
 230 612 268 567 261 514 c 0
 254 461 206 415 154 415 c 0
EndSplineSet
EndChar

StartChar: zero
Encoding: 48 48 4
Width: 832
Flags: W
HStem: 0 21G<332 500.438> 361 140<560 633.162> 807 20G<343.5 687.5>
VStem: 742 153<564.126 649.468>
LayerCount: 2
Fore
SplineSet
583 695 m 1
 560 501 l 1
 654 510 735 549 742 601 c 1
 744 649 710 670 583 695 c 1
542 361 m 1
 498 0 l 1
 332 0 l 1
 376 361 l 1
 219 383 71 502 81 596 c 0
 81 597 l 1
 98 696 243 819 444 827 c 1
 588 827 l 1
 787 819 902 696 895 597 c 0
 895 596 l 0
 881 501 703 382 542 361 c 1
236 601 m 1
 230 548 304 509 394 501 c 1
 417 695 l 1
 282 669 246 648 236 601 c 1
EndSplineSet
EndChar

StartChar: one
Encoding: 49 49 5
Width: 426
Flags: W
HStem: 0 21G<13 172.446> 744 116<261 506>
LayerCount: 2
Fore
SplineSet
261 744 m 1
 170 0 l 1
 13 0 l 1
 119 860 l 1
 521 860 l 1
 506 744 l 1
 261 744 l 1
EndSplineSet
EndChar

StartChar: two
Encoding: 50 50 6
Width: 429
Flags: W
HStem: 0 21G<13 172.454> 603 114<258 490> 744 116<261 507>
LayerCount: 2
Fore
SplineSet
170 0 m 1
 13 0 l 1
 119 860 l 1
 522 860 l 1
 507 744 l 1
 261 744 l 1
 258 717 l 1
 504 717 l 1
 490 603 l 1
 244 603 l 1
 170 0 l 1
EndSplineSet
EndChar

StartChar: three
Encoding: 51 51 7
Width: 430
Flags: W
HStem: 0 21G<13 172.446> 466 117<242 472> 607 111<258 490> 744 116<261 506>
LayerCount: 2
Fore
SplineSet
170 0 m 1
 13 0 l 1
 119 860 l 1
 521 860 l 1
 506 744 l 1
 261 744 l 1
 258 718 l 1
 503 718 l 1
 490 607 l 1
 245 607 l 1
 242 583 l 1
 487 583 l 1
 472 466 l 1
 227 466 l 1
 170 0 l 1
EndSplineSet
EndChar

StartChar: four
Encoding: 52 52 8
Width: 432
Flags: W
HStem: 0 21G<13 172.454> 326 117<224 455> 466 117<242 472> 607 111<258 490> 744 116<261 506>
LayerCount: 2
Fore
SplineSet
170 0 m 1
 13 0 l 1
 119 860 l 1
 521 860 l 1
 506 744 l 1
 261 744 l 1
 258 718 l 1
 503 718 l 1
 490 607 l 1
 245 607 l 1
 242 583 l 1
 487 583 l 1
 472 466 l 1
 227 466 l 1
 224 443 l 1
 469 443 l 1
 455 326 l 1
 210 326 l 1
 170 0 l 1
EndSplineSet
EndChar

StartChar: five
Encoding: 53 53 9
Width: 513
Flags: W
HStem: 0 21G<13 181.438> 361 140<240 314.162> 807 20G<113.509 369.5>
VStem: 423 153<564.126 649.468>
LayerCount: 2
Fore
SplineSet
263 695 m 1
 240 501 l 1
 334 510 416 550 423 601 c 1
 425 649 390 670 263 695 c 1
13 0 m 1
 116 827 l 1
 270 827 l 1
 469 819 583 696 576 597 c 0
 576 596 l 0
 562 501 384 382 223 361 c 1
 179 0 l 1
 13 0 l 1
EndSplineSet
EndChar

StartChar: six
Encoding: 54 54 10
Width: 513
Flags: W
HStem: 0 21G<13 181.458> 301 79<305 396> 807 20G<113.509 369.5>
VStem: 423 153<563.063 649.468>
LayerCount: 2
Fore
SplineSet
13 0 m 1
 116 827 l 1
 270 827 l 1
 469 819 583 696 576 597 c 0
 576 596 l 1
 564 517 438 422 305 380 c 1
 406 380 l 1
 396 301 l 1
 216 301 l 1
 179 0 l 1
 13 0 l 1
263 695 m 1
 240 501 l 1
 334 510 416 550 423 601 c 1
 425 649 390 670 263 695 c 1
EndSplineSet
EndChar

StartChar: seven
Encoding: 55 55 11
Width: 512
Flags: W
HStem: 0 21G<13 181.441> 213 79<215 385> 301 79<305 396> 807 20G<113.509 369.5>
VStem: 423 153<563.063 649.468>
LayerCount: 2
Fore
SplineSet
13 0 m 1
 116 827 l 1
 270 827 l 1
 469 819 583 696 576 597 c 0
 576 596 l 1
 564 517 438 422 305 380 c 1
 406 380 l 1
 396 301 l 1
 216 301 l 1
 215 292 l 1
 395 292 l 1
 385 213 l 1
 205 213 l 1
 179 0 l 1
 13 0 l 1
263 695 m 1
 240 501 l 1
 334 510 416 550 423 601 c 1
 425 649 390 670 263 695 c 1
EndSplineSet
EndChar

StartChar: eight
Encoding: 56 56 12
Width: 512
Flags: W
HStem: 0 21G<13 181.4> 125 79<204 374> 213 79<215 385> 301 79<305 396> 807 20G<113.509 369.5>
VStem: 423 153<563.063 649.468>
LayerCount: 2
Fore
SplineSet
13 0 m 1
 116 827 l 1
 270 827 l 1
 469 819 583 696 576 597 c 0
 576 596 l 1
 564 517 438 422 305 380 c 1
 406 380 l 1
 396 301 l 1
 216 301 l 1
 215 292 l 1
 395 292 l 1
 385 213 l 1
 205 213 l 1
 204 204 l 1
 384 204 l 1
 374 125 l 1
 194 125 l 1
 179 0 l 1
 13 0 l 1
263 695 m 1
 240 501 l 1
 334 510 416 550 423 601 c 1
 425 649 390 670 263 695 c 1
EndSplineSet
EndChar

StartChar: nine
Encoding: 57 57 13
Width: 512
Flags: W
HStem: 0 21G<13 181.273> 44 73<193 364> 125 79<204 374> 213 79<215 385> 301 79<305 396> 807 20G<113.509 369.5>
VStem: 423 153<563.063 649.468>
LayerCount: 2
Fore
SplineSet
13 0 m 1
 116 827 l 1
 270 827 l 1
 469 819 583 696 576 597 c 0
 576 596 l 1
 564 517 438 422 305 380 c 1
 406 380 l 1
 396 301 l 1
 216 301 l 1
 215 292 l 1
 395 292 l 1
 385 213 l 1
 205 213 l 1
 204 204 l 1
 384 204 l 1
 374 125 l 1
 194 125 l 1
 193 117 l 1
 373 117 l 1
 364 44 l 1
 184 44 l 1
 179 0 l 1
 13 0 l 1
263 695 m 1
 240 501 l 1
 334 510 416 550 423 601 c 1
 425 649 390 670 263 695 c 1
EndSplineSet
EndChar

StartChar: colon
Encoding: 58 58 14
Width: 745
Flags: W
HStem: 1 21G<185.571 276 462 555.429>
LayerCount: 2
Fore
SplineSet
561 1 m 1
 462 2 l 1
 276 2 l 1
 175 1 l 1
 323 281 l 1
 29 168 l 1
 76 555 l 1
 342 442 l 1
 264 722 l 1
 365 721 l 1
 549 721 l 1
 650 722 l 1
 502 442 l 1
 796 555 l 1
 749 168 l 1
 483 281 l 1
 561 1 l 1
EndSplineSet
EndChar

StartChar: at
Encoding: 64 64 15
Width: 847
Flags: W
HStem: 0 21G<13 172.465 487 646.469> 840 20G<116.535 341.615>
LayerCount: 2
Fore
SplineSet
734 729 m 1
 644 0 l 1
 487 0 l 1
 579 748 l 1
 408 675 l 1
 401 714 l 1
 262 752 l 1
 255 692 l 1
 401 653 l 1
 350 537 l 1
 240 568 l 1
 170 0 l 1
 13 0 l 1
 119 860 l 1
 267 860 l 1
 461 808 l 1
 681 905 l 1
 937 773 l 1
 888 658 l 1
 734 729 l 1
EndSplineSet
EndChar

StartChar: A
Encoding: 65 65 16
Width: 373
Flags: W
HStem: 0 21G<12 166.45> 840 20G<115.535 338.358>
LayerCount: 2
Fore
SplineSet
12 0 m 1
 118 860 l 1
 261 860 l 1
 466 807 l 1
 417 692 l 1
 254 735 l 1
 247 676 l 1
 398 638 l 1
 347 525 l 1
 232 555 l 1
 164 0 l 1
 12 0 l 1
EndSplineSet
EndChar

StartChar: B
Encoding: 66 66 17
Width: 537
Flags: W
HStem: 0 21G<12 187.332> 827 20G<113.544 286.461>
LayerCount: 2
Fore
SplineSet
181 139 m 1
 372 261 l 1
 210 378 l 1
 181 139 l 1
248 688 m 1
 219 449 l 1
 409 566 l 1
 248 688 l 1
568 271 m 1
 157 0 l 1
 12 0 l 1
 116 847 l 1
 261 847 l 1
 606 576 l 1
 364 424 l 1
 568 271 l 1
EndSplineSet
EndChar

StartChar: C
Encoding: 67 67 18
Width: 346
Flags: W
HStem: 844 20G<419.488 434.466>
LayerCount: 2
Fore
SplineSet
57 430 m 1
 437 864 l 1
 409 643 l 1
 226 430 l 1
 357 217 l 1
 331 -4 l 1
 57 430 l 1
EndSplineSet
EndChar

StartChar: D
Encoding: 68 68 19
Width: 666
Flags: W
HStem: 0 21G<12 173.805 489.976 650.465> 840 20G<115.535 274.889 591.061 754>
LayerCount: 2
Fore
SplineSet
544 252 m 1
 588 608 l 1
 463 430 l 1
 544 252 l 1
222 608 m 1
 178 252 l 1
 302 430 l 1
 222 608 l 1
160 0 m 1
 12 0 l 1
 118 860 l 1
 266 860 l 1
 398 563 l 1
 605 860 l 1
 754 860 l 1
 648 0 l 1
 499 0 l 1
 365 297 l 1
 160 0 l 1
EndSplineSet
EndChar

StartChar: E
Encoding: 69 69 20
Width: 715
Flags: W
HStem: 0 21G<12 166.457 545 699.458>
LayerCount: 2
Fore
SplineSet
545 0 m 1
 631 700 l 1
 425 575 l 1
 250 700 l 1
 164 0 l 1
 12 0 l 1
 123 903 l 1
 196 904 l 1
 441 700 l 1
 735 904 l 1
 808 903 l 1
 697 0 l 1
 545 0 l 1
EndSplineSet
EndChar

StartChar: F
Encoding: 70 70 21
Width: 525
Flags: W
HStem: 0 21G<12 166.5> 841 20G<115.535 270 438.02 633>
LayerCount: 2
Fore
SplineSet
164 0 m 1
 12 1 l 1
 118 861 l 1
 270 861 l 1
 245 657 l 1
 459 861 l 1
 633 861 l 1
 220 459 l 1
 214 409 l 1
 429 604 l 1
 604 604 l 1
 190 208 l 1
 164 0 l 1
EndSplineSet
EndChar

StartChar: G
Encoding: 71 71 22
Width: 625
Flags: W
HStem: 0 21G<12 166.445> 732 126<351.498 432.596>
VStem: 331 123<752.955 838.16>
LayerCount: 2
Fore
SplineSet
270 860 m 1
 229 533 l 1
 348 580 526 713 592 853 c 0
 595 860 l 1
 725 860 l 1
 720 848 l 0
 653 668 394 474 214 409 c 1
 164 0 l 1
 12 0 l 1
 118 860 l 1
 270 860 l 1
384 732 m 0
 350 732 327 761 331 795 c 0
 335 829 365 858 399 858 c 0
 433 858 458 829 454 795 c 0
 450 761 418 732 384 732 c 0
EndSplineSet
EndChar

StartChar: H
Encoding: 72 72 23
Width: 627
Flags: W
HStem: 0 21G<12 166.44 457 611.465> 840 20G<115.535 270 560.518 715>
LayerCount: 2
Fore
SplineSet
164 0 m 1
 12 0 l 1
 118 860 l 1
 270 860 l 1
 228 525 l 1
 512 449 l 1
 563 860 l 1
 715 860 l 1
 609 0 l 1
 457 0 l 1
 499 342 l 1
 215 418 l 1
 164 0 l 1
EndSplineSet
EndChar

StartChar: I
Encoding: 73 73 24
Width: 182
Flags: W
HStem: 0 21G<12 166.465> 840 20G<115.535 270>
VStem: 12 258
LayerCount: 2
Fore
SplineSet
164 0 m 1
 12 0 l 1
 118 860 l 1
 270 860 l 1
 164 0 l 1
EndSplineSet
EndChar

StartChar: J
Encoding: 74 74 25
Width: 578
Flags: W
HStem: 854 20G<366.57 382.545>
LayerCount: 2
Fore
SplineSet
613 326 m 1
 296 -19 l 1
 323 201 l 1
 445 326 l 1
 353 450 l 1
 380 670 l 1
 613 326 l 1
328 405 m 1
 301 185 l 1
 68 530 l 1
 385 874 l 1
 358 654 l 1
 236 530 l 1
 328 405 l 1
EndSplineSet
EndChar

StartChar: K
Encoding: 75 75 26
Width: 486
Flags: W
HStem: 0 21G<12 166.458> 841 20G<115.535 270 403.856 596>
LayerCount: 2
Fore
SplineSet
164 0 m 1
 12 1 l 1
 118 861 l 1
 270 861 l 1
 246 667 l 1
 422 861 l 1
 596 861 l 1
 223 480 l 1
 164 0 l 1
EndSplineSet
EndChar

StartChar: L
Encoding: 76 76 27
Width: 368
Flags: W
HStem: 0 21G<12 164.45>
LayerCount: 2
Fore
SplineSet
162 0 m 1
 12 0 l 1
 124 909 l 1
 451 739 l 1
 401 624 l 1
 247 694 l 1
 162 0 l 1
EndSplineSet
EndChar

StartChar: M
Encoding: 77 77 28
Width: 715
Flags: W
HStem: 0 21G<12 165.482 545 699.458>
LayerCount: 2
Fore
SplineSet
230 549 m 1
 337 629 l 1
 248 691 l 1
 230 549 l 1
526 628 m 1
 612 549 l 1
 630 691 l 1
 526 628 l 1
697 0 m 1
 545 0 l 1
 598 428 l 1
 425 574 l 1
 216 427 l 1
 163 0 l 1
 12 0 l 1
 123 903 l 1
 196 904 l 1
 441 700 l 1
 735 904 l 1
 808 903 l 1
 697 0 l 1
EndSplineSet
EndChar

StartChar: N
Encoding: 78 78 29
Width: 549
Flags: W
HStem: 0 21G<192 346.462> 840 20G<295.524 450>
LayerCount: 2
Fore
SplineSet
567 343 m 1
 392 390 l 1
 344 0 l 1
 192 0 l 1
 245 428 l 1
 63 477 l 1
 108 593 l 1
 260 553 l 1
 298 860 l 1
 450 860 l 1
 407 515 l 1
 598 464 l 1
 567 343 l 1
EndSplineSet
EndChar

StartChar: O
Encoding: 79 79 30
Width: 375
Flags: W
HStem: 0 21G<12 166.439> 840 20G<115.535 270>
LayerCount: 2
Fore
SplineSet
164 0 m 1
 12 0 l 1
 118 860 l 1
 270 860 l 1
 235 581 l 1
 399 623 l 1
 416 507 l 1
 220 458 l 1
 214 410 l 1
 392 456 l 1
 409 340 l 1
 199 287 l 1
 164 0 l 1
EndSplineSet
EndChar

StartChar: P
Encoding: 80 80 31
Width: 377
Flags: W
HStem: 0 21G<27 130.719>
LayerCount: 2
Fore
SplineSet
27 1 m 1
 10 -14 l 1
 125 918 l 1
 138 903 l 1
 195 904 l 1
 462 776 l 1
 413 661 l 1
 254 730 l 1
 185 174 l 1
 362 243 l 1
 383 128 l 1
 84 0 l 1
 27 1 l 1
EndSplineSet
EndChar

StartChar: Q
Encoding: 81 81 32
Width: 433
Flags: W
HStem: 0 21G<263 417.465> 840 20G<366.398 521>
LayerCount: 2
Fore
SplineSet
56 430 m 1
 353 737 l 1
 369 860 l 1
 521 860 l 1
 415 0 l 1
 263 0 l 1
 278 123 l 1
 56 430 l 1
300 299 m 1
 332 561 l 1
 203 430 l 1
 300 299 l 1
EndSplineSet
EndChar

StartChar: R
Encoding: 82 82 33
Width: 600
Flags: W
HStem: 0 21G<12 166.464 431.412 601> 825 20G<113.538 286.193>
LayerCount: 2
Fore
SplineSet
419 420 m 1
 601 0 l 1
 440 0 l 1
 291 347 l 1
 306 470 l 1
 427 559 l 1
 250 698 l 1
 164 0 l 1
 12 0 l 1
 116 845 l 1
 261 845 l 1
 620 560 l 1
 419 420 l 1
EndSplineSet
EndChar

StartChar: S
Encoding: 83 83 34
Width: 538
Flags: W
HStem: 0 21G<363 522.456> 796 20G<109.544 268>
LayerCount: 2
Fore
SplineSet
43 254 m 1
 112 816 l 1
 268 816 l 1
 221 432 l 1
 320 472 415 518 511 562 c 0
 513 563 l 1
 589 562 l 1
 520 0 l 1
 363 0 l 1
 410 385 l 1
 310 344 217 298 121 254 c 0
 119 253 l 1
 43 254 l 1
EndSplineSet
EndChar

StartChar: T
Encoding: 84 84 35
Width: 558
Flags: W
HStem: 0 21G<202 354.446>
LayerCount: 2
Fore
SplineSet
437 695 m 1
 352 0 l 1
 202 0 l 1
 287 695 l 1
 117 624 l 1
 95 739 l 1
 389 906 l 1
 641 739 l 1
 591 624 l 1
 437 695 l 1
EndSplineSet
EndChar

StartChar: U
Encoding: 85 85 36
Width: 616
Flags: W
HStem: 0 21G<12 166.46 448.05 615> 840 20G<115.535 274.116>
LayerCount: 2
Fore
SplineSet
118 860 m 1
 266 860 l 1
 615 0 l 1
 456 0 l 1
 233 561 l 1
 164 0 l 1
 12 0 l 1
 118 860 l 1
EndSplineSet
EndChar

StartChar: V
Encoding: 86 86 37
Width: 525
Flags: W
HStem: 0 21G<12 166.5> 761 99<296.735 366.621>
VStem: 284 94<771.779 847.264>
LayerCount: 2
Fore
SplineSet
164 0 m 1
 12 1 l 1
 118 861 l 1
 270 861 l 1
 245 657 l 1
 459 861 l 1
 633 861 l 1
 220 459 l 1
 214 409 l 1
 429 604 l 1
 604 604 l 1
 190 208 l 1
 164 0 l 1
326 761 m 0
 299 761 281 784 284 810 c 0
 287 836 312 860 339 860 c 0
 367 860 381 835 378 810 c 0
 375 784 353 761 326 761 c 0
EndSplineSet
EndChar

StartChar: W
Encoding: 87 87 38
Width: 521
Flags: W
HStem: 0 21G<12 166.468> 827 20G<116 285.428>
LayerCount: 2
Fore
SplineSet
248 684 m 1
 219 446 l 1
 409 566 l 1
 248 684 l 1
116 845 m 1
 261 847 l 1
 592 576 l 1
 202 308 l 1
 164 0 l 1
 12 0 l 1
 116 845 l 1
EndSplineSet
EndChar

StartChar: X
Encoding: 88 88 39
Width: 795
Flags: W
HStem: 0 21G<362 522.445> 796 69G<107.518 266 728.539 887>
LayerCount: 2
Fore
SplineSet
832 438 m 1
 676 438 l 1
 731 885 l 1
 887 885 l 1
 832 438 l 1
42 248 m 1
 110 796 l 1
 266 796 l 1
 220 422 l 1
 319 461 413 505 509 548 c 0
 511 549 l 1
 587 548 l 1
 520 0 l 1
 362 0 l 1
 408 375 l 1
 310 336 216 291 120 248 c 0
 118 247 l 1
 42 248 l 1
EndSplineSet
EndChar

StartChar: Y
Encoding: 89 89 40
Width: 616
Flags: W
HStem: 0 21G<12 166.46 448.05 615> 172 127<229.951 310.596> 840 20G<115.535 274.116>
VStem: 209 123<193.502 278.045>
LayerCount: 2
Fore
SplineSet
118 860 m 1
 266 860 l 1
 615 0 l 1
 456 0 l 1
 233 561 l 1
 164 0 l 1
 12 0 l 1
 118 860 l 1
262 172 m 0
 228 172 205 202 209 236 c 0
 213 270 244 299 278 299 c 0
 312 299 336 270 332 236 c 0
 328 202 296 172 262 172 c 0
EndSplineSet
EndChar

StartChar: Z
Encoding: 90 90 41
Width: 560
Flags: W
HStem: 865 20G<309.536 462>
LayerCount: 2
Fore
SplineSet
260 463 m 1
 312 885 l 1
 462 885 l 1
 410 463 l 1
 581 536 l 1
 602 419 l 1
 308 248 l 1
 56 419 l 1
 107 536 l 1
 260 463 l 1
EndSplineSet
EndChar

StartChar: a
Encoding: 97 97 42
Width: 373
Flags: W
HStem: 0 21G<12 166.455> 840 20G<115.535 336.926>
LayerCount: 2
Fore
SplineSet
12 0 m 1
 118 860 l 1
 261 860 l 1
 466 806 l 1
 417 691 l 1
 254 734 l 1
 247 675 l 1
 398 637 l 1
 347 524 l 1
 232 554 l 1
 164 0 l 1
 12 0 l 1
EndSplineSet
EndChar

StartChar: b
Encoding: 98 98 43
Width: 368
Flags: W
HStem: 0 21G<12 166.476> 840 20G<115.535 270>
LayerCount: 2
Fore
SplineSet
12 0 m 1
 118 860 l 1
 270 860 l 1
 239 610 l 1
 357 640 l 1
 380 527 l 1
 224 489 l 1
 217 430 l 1
 389 473 l 1
 405 359 l 1
 202 307 l 1
 164 0 l 1
 12 0 l 1
EndSplineSet
EndChar

StartChar: c
Encoding: 99 99 44
Width: 370
Flags: W
HStem: 865 20G<118.535 271>
LayerCount: 2
Fore
SplineSet
42 244 m 1
 121 885 l 1
 271 885 l 1
 219 463 l 1
 390 536 l 1
 411 418 l 1
 42 244 l 1
EndSplineSet
EndChar

StartChar: d
Encoding: 100 100 45
Width: 386
Flags: W
HStem: 0 21G<202 354.442>
LayerCount: 2
Fore
SplineSet
394 344 m 1
 352 0 l 1
 202 0 l 1
 245 348 l 1
 234 365 232 384 234 404 c 0
 236 424 244 444 258 460 c 1
 287 694 l 1
 117 624 l 1
 95 739 l 1
 464 909 l 1
 409 464 l 1
 420 447 427 427 424 404 c 0
 421 381 408 360 394 344 c 1
EndSplineSet
EndChar

StartChar: e
Encoding: 101 101 46
Width: 715
Flags: W
HStem: 0 21G<12 166.457 545 699.458>
LayerCount: 2
Fore
SplineSet
545 0 m 1
 631 700 l 1
 425 575 l 1
 250 700 l 1
 164 0 l 1
 12 0 l 1
 123 903 l 1
 196 904 l 1
 441 700 l 1
 735 904 l 1
 808 903 l 1
 697 0 l 1
 545 0 l 1
EndSplineSet
EndChar

StartChar: f
Encoding: 102 102 47
Width: 525
Flags: W
HStem: 0 21G<12 166.5> 841 20G<115.535 270 438.02 633>
LayerCount: 2
Fore
SplineSet
164 0 m 1
 12 1 l 1
 118 861 l 1
 270 861 l 1
 245 657 l 1
 459 861 l 1
 633 861 l 1
 220 459 l 1
 214 409 l 1
 429 604 l 1
 604 604 l 1
 190 208 l 1
 164 0 l 1
EndSplineSet
EndChar

StartChar: g
Encoding: 103 103 48
Width: 650
Flags: W
HStem: 0 21G<-1 172.514 479.284 648> 840 20G<105 273.581 580.351 754>
LayerCount: 2
Fore
SplineSet
456 430 m 1
 648 0 l 1
 488 0 l 1
 359 296 l 1
 159 0 l 1
 -1 0 l 1
 297 430 l 1
 105 860 l 1
 265 860 l 1
 392 564 l 1
 594 860 l 1
 754 860 l 1
 456 430 l 1
EndSplineSet
EndChar

StartChar: h
Encoding: 104 104 49
Width: 511
Flags: W
HStem: 0 21G<177 331.458> 358 144<71 221 391 540> 840 20G<280.542 435>
LayerCount: 2
Fore
SplineSet
239 502 m 1
 283 860 l 1
 435 860 l 1
 391 502 l 1
 558 502 l 1
 540 358 l 1
 373 358 l 1
 329 0 l 1
 177 0 l 1
 221 358 l 1
 53 358 l 1
 71 502 l 1
 239 502 l 1
EndSplineSet
EndChar

StartChar: i
Encoding: 105 105 50
Width: 182
Flags: W
HStem: 0 21G<12 166.465> 840 20G<115.535 270>
VStem: 12 258
LayerCount: 2
Fore
SplineSet
164 0 m 1
 12 0 l 1
 118 860 l 1
 270 860 l 1
 164 0 l 1
EndSplineSet
EndChar

StartChar: j
Encoding: 106 106 51
Width: 578
Flags: W
HStem: 854 20G<366.57 382.545>
LayerCount: 2
Fore
SplineSet
613 326 m 1
 296 -19 l 1
 323 201 l 1
 445 326 l 1
 353 450 l 1
 380 670 l 1
 613 326 l 1
328 405 m 1
 301 185 l 1
 68 530 l 1
 385 874 l 1
 358 654 l 1
 236 530 l 1
 328 405 l 1
EndSplineSet
EndChar

StartChar: k
Encoding: 107 107 52
Width: 486
Flags: W
HStem: 0 21G<12 166.458> 841 20G<115.535 270 403.856 596>
LayerCount: 2
Fore
SplineSet
164 0 m 1
 12 1 l 1
 118 861 l 1
 270 861 l 1
 246 667 l 1
 422 861 l 1
 596 861 l 1
 223 480 l 1
 164 0 l 1
EndSplineSet
EndChar

StartChar: l
Encoding: 108 108 53
Width: 368
Flags: W
HStem: 0 21G<12 164.45>
LayerCount: 2
Fore
SplineSet
162 0 m 1
 12 0 l 1
 124 909 l 1
 451 739 l 1
 401 624 l 1
 247 694 l 1
 162 0 l 1
EndSplineSet
EndChar

StartChar: m
Encoding: 109 109 54
Width: 715
Flags: W
HStem: 0 21G<12 165.482 545 699.458>
LayerCount: 2
Fore
SplineSet
230 549 m 1
 337 629 l 1
 248 691 l 1
 230 549 l 1
526 628 m 1
 612 549 l 1
 630 691 l 1
 526 628 l 1
697 0 m 1
 545 0 l 1
 598 428 l 1
 425 574 l 1
 216 427 l 1
 163 0 l 1
 12 0 l 1
 123 903 l 1
 196 904 l 1
 441 700 l 1
 735 904 l 1
 808 903 l 1
 697 0 l 1
EndSplineSet
EndChar

StartChar: n
Encoding: 110 110 55
Width: 368
Flags: W
HStem: 0 21G<12 166.481> 840 20G<115.535 270>
LayerCount: 2
Fore
SplineSet
164 0 m 1
 12 0 l 1
 118 860 l 1
 270 860 l 1
 227 510 l 1
 417 460 l 1
 375 344 l 1
 212 387 l 1
 164 0 l 1
EndSplineSet
EndChar

StartChar: o
Encoding: 111 111 56
Width: 542
Flags: W
HStem: 0 21G<-5 178.32 360.484 543> 746 20G<345.049 377.889>
LayerCount: 2
Fore
SplineSet
422 444 m 1
 339 558 l 1
 226 444 l 1
 311 331 l 1
 422 444 l 1
57 442 m 1
 364 766 l 1
 589 442 l 1
 385 226 l 1
 543 0 l 1
 375 0 l 1
 285 124 l 1
 158 -1 l 1
 -5 0 l 1
 209 226 l 1
 57 442 l 1
EndSplineSet
EndChar

StartChar: p
Encoding: 112 112 57
Width: 377
Flags: W
HStem: 0 21G<27 131.087>
LayerCount: 2
Fore
SplineSet
27 1 m 1
 10 -14 l 1
 125 918 l 1
 138 903 l 1
 195 904 l 1
 462 773 l 1
 413 658 l 1
 253 727 l 1
 185 174 l 1
 362 242 l 1
 383 127 l 1
 84 0 l 1
 27 1 l 1
EndSplineSet
EndChar

StartChar: q
Encoding: 113 113 58
Width: 433
Flags: W
HStem: 0 21G<263 417.465> 840 20G<366.398 521>
LayerCount: 2
Fore
SplineSet
56 430 m 1
 353 737 l 1
 369 860 l 1
 521 860 l 1
 415 0 l 1
 263 0 l 1
 278 123 l 1
 56 430 l 1
300 299 m 1
 332 561 l 1
 203 430 l 1
 300 299 l 1
EndSplineSet
EndChar

StartChar: r
Encoding: 114 114 59
Width: 600
Flags: W
HStem: 0 21G<12 166.464 431.412 601> 805 20G<110.552 283.899>
LayerCount: 2
Fore
SplineSet
417 410 m 1
 601 0 l 1
 440 0 l 1
 291 347 l 1
 306 470 l 1
 427 559 l 1
 250 698 l 1
 164 0 l 1
 12 0 l 1
 113 825 l 1
 258 825 l 1
 618 547 l 1
 417 410 l 1
EndSplineSet
EndChar

StartChar: s
Encoding: 115 115 60
Width: 181
Flags: W
HStem: 865 20G<118.539 273>
VStem: 66 207
LayerCount: 2
Fore
SplineSet
218 438 m 1
 66 438 l 1
 121 885 l 1
 273 885 l 1
 218 438 l 1
EndSplineSet
EndChar

StartChar: t
Encoding: 116 116 61
Width: 370
Flags: W
HStem: 0 21G<202 354.464>
LayerCount: 2
Fore
SplineSet
464 909 m 1
 352 0 l 1
 202 0 l 1
 287 694 l 1
 117 624 l 1
 95 739 l 1
 464 909 l 1
EndSplineSet
EndChar

StartChar: u
Encoding: 117 117 62
Width: 616
Flags: W
HStem: 0 21G<12 166.46 448.05 615> 840 20G<115.535 274.116>
LayerCount: 2
Fore
SplineSet
118 860 m 1
 266 860 l 1
 615 0 l 1
 456 0 l 1
 233 561 l 1
 164 0 l 1
 12 0 l 1
 118 860 l 1
EndSplineSet
EndChar

StartChar: v
Encoding: 118 118 63
Width: 525
Flags: W
HStem: 0 21G<12 166.5> 761 99<296.735 366.621>
VStem: 284 94<771.779 847.264>
LayerCount: 2
Fore
SplineSet
164 0 m 1
 12 1 l 1
 118 861 l 1
 270 861 l 1
 245 657 l 1
 459 861 l 1
 633 861 l 1
 220 459 l 1
 214 409 l 1
 429 604 l 1
 604 604 l 1
 190 208 l 1
 164 0 l 1
326 761 m 0
 299 761 281 784 284 810 c 0
 287 836 312 860 339 860 c 0
 367 860 381 835 378 810 c 0
 375 784 353 761 326 761 c 0
EndSplineSet
EndChar

StartChar: w
Encoding: 119 119 64
Width: 521
Flags: W
HStem: 0 21G<12 166.458> 807 20G<113 283.981>
LayerCount: 2
Fore
SplineSet
248 684 m 1
 219 446 l 1
 409 566 l 1
 248 684 l 1
113 825 m 1
 259 827 l 1
 590 562 l 1
 201 301 l 1
 164 0 l 1
 12 0 l 1
 113 825 l 1
EndSplineSet
EndChar

StartChar: x
Encoding: 120 120 65
Width: 766
Flags: W
HStem: 0 21G<482 640.476> 105 112<381 495 665 767> 597 111<95 203 375 481> 776 20G<225.5 386>
LayerCount: 2
Fore
SplineSet
217 708 m 1
 228 796 l 1
 386 796 l 1
 375 708 l 1
 495 708 l 1
 481 597 l 1
 361 597 l 1
 340 422 l 1
 439 461 531 504 627 547 c 0
 629 548 l 1
 705 547 l 1
 665 217 l 1
 781 217 l 1
 767 105 l 1
 651 105 l 1
 638 0 l 1
 482 0 l 1
 495 105 l 1
 367 105 l 1
 381 217 l 1
 509 217 l 1
 528 375 l 1
 428 335 334 291 238 248 c 0
 236 247 l 1
 160 248 l 1
 203 597 l 1
 81 597 l 1
 95 708 l 1
 217 708 l 1
EndSplineSet
EndChar

StartChar: y
Encoding: 121 121 66
Width: 616
Flags: W
HStem: 0 21G<12 166.46 448.05 615> 172 127<229.951 310.596> 840 20G<115.535 274.116>
VStem: 209 123<193.502 278.045>
LayerCount: 2
Fore
SplineSet
118 860 m 1
 266 860 l 1
 615 0 l 1
 456 0 l 1
 233 561 l 1
 164 0 l 1
 12 0 l 1
 118 860 l 1
262 172 m 0
 228 172 205 202 209 236 c 0
 213 270 244 299 278 299 c 0
 312 299 336 270 332 236 c 0
 328 202 296 172 262 172 c 0
EndSplineSet
EndChar

StartChar: z
Encoding: 122 122 67
Width: 560
Flags: W
HStem: 865 20G<309.536 462>
LayerCount: 2
Fore
SplineSet
260 463 m 1
 312 885 l 1
 462 885 l 1
 410 463 l 1
 581 536 l 1
 602 419 l 1
 308 248 l 1
 56 419 l 1
 107 536 l 1
 260 463 l 1
EndSplineSet
EndChar

StartChar: Adieresis
Encoding: 196 196 68
Width: 627
Flags: W
HStem: 2 126<293.951 374.596> 840 20G<555.506 715>
VStem: 273 123<22.9553 107.045>
LayerCount: 2
Fore
SplineSet
452 0 m 1
 492 327 l 1
 374 280 200 147 134 7 c 0
 131 0 l 1
 3 0 l 1
 7 12 l 0
 74 192 327 386 507 451 c 1
 558 860 l 1
 715 860 l 1
 609 0 l 1
 452 0 l 1
342 128 m 0
 376 128 400 99 396 65 c 0
 392 31 360 2 326 2 c 0
 292 2 269 31 273 65 c 0
 277 99 308 128 342 128 c 0
EndSplineSet
EndChar

StartChar: Aring
Encoding: 197 197 69
Width: 570
Flags: W
HStem: 0 21G<213 372.438> 840 20G<316.524 476>
LayerCount: 2
Fore
SplineSet
465 442 m 1
 607 356 l 1
 529 248 l 1
 409 320 l 1
 370 0 l 1
 213 0 l 1
 254 330 l 1
 97 248 l 1
 47 356 l 1
 209 442 l 1
 68 527 l 1
 145 636 l 1
 281 553 l 1
 319 860 l 1
 476 860 l 1
 439 563 l 1
 577 636 l 1
 628 527 l 1
 465 442 l 1
EndSplineSet
EndChar

StartChar: AE
Encoding: 198 198 70
Width: 563
Flags: W
HStem: -1 21G<241.062 358>
LayerCount: 2
Fore
SplineSet
448 730 m 1
 358 0 l 1
 282 -1 l 1
 20 127 l 1
 69 242 l 1
 223 173 l 1
 313 903 l 1
 389 904 l 1
 651 776 l 1
 602 661 l 1
 448 730 l 1
EndSplineSet
EndChar

StartChar: Eth
Encoding: 208 208 71
Width: 429
Flags: W
HStem: 0 21G<12 166.439> 387 85<233.25 298.449> 840 20G<115.535 270>
VStem: 225 82<395.421 463.918>
LayerCount: 2
Fore
SplineSet
270 860 m 1
 254 737 l 1
 477 430 l 1
 179 123 l 1
 164 0 l 1
 12 0 l 1
 118 860 l 1
 270 860 l 1
330 430 m 1
 233 561 l 1
 201 298 l 1
 330 430 l 1
261 387 m 0
 238 387 222 408 225 430 c 0
 228 452 248 472 271 472 c 0
 294 472 310 452 307 430 c 0
 304 408 284 387 261 387 c 0
EndSplineSet
EndChar

StartChar: Odieresis
Encoding: 214 214 72
Width: 885
Flags: W
HStem: 0 21G<4 175 362 522.441 707 878> 841 20G<465.538 626>
LayerCount: 2
Fore
SplineSet
7 12 m 0
 50 155 207 358 420 471 c 1
 468 861 l 1
 626 861 l 1
 578 471 l 1
 765 358 870 154 877 11 c 0
 878 0 l 1
 707 0 l 1
 709 11 l 0
 723 95 641 235 556 295 c 1
 520 0 l 1
 362 0 l 1
 398 295 l 1
 297 234 181 96 175 12 c 0
 175 1 l 1
 4 1 l 1
 7 12 l 0
EndSplineSet
EndChar

StartChar: Oslash
Encoding: 216 216 73
Width: 568
Flags: W
HStem: 0 21G<202 361.422> 840 20G<305.508 465>
LayerCount: 2
Fore
SplineSet
359 0 m 1
 202 0 l 1
 232 246 l 1
 74 206 l 1
 58 323 l 1
 248 371 l 1
 253 416 l 1
 82 373 l 1
 65 489 l 1
 268 539 l 1
 308 860 l 1
 465 860 l 1
 430 580 l 1
 603 623 l 1
 608 505 l 1
 415 457 l 1
 410 413 l 1
 573 455 l 1
 603 342 l 1
 394 289 l 1
 359 0 l 1
EndSplineSet
EndChar

StartChar: Thorn
Encoding: 222 222 74
Width: 429
Flags: W
HStem: 0 21G<12 166.439> 840 20G<115.535 270>
LayerCount: 2
Fore
SplineSet
270 860 m 1
 254 737 l 1
 477 430 l 1
 179 123 l 1
 164 0 l 1
 12 0 l 1
 118 860 l 1
 270 860 l 1
330 430 m 1
 233 561 l 1
 201 299 l 1
 330 430 l 1
EndSplineSet
EndChar

StartChar: adieresis
Encoding: 228 228 75
Width: 627
Flags: W
HStem: 2 126<293.951 374.596> 840 20G<555.506 715>
VStem: 273 123<22.9553 107.045>
LayerCount: 2
Fore
SplineSet
452 0 m 1
 492 327 l 1
 374 280 200 147 134 7 c 0
 131 0 l 1
 3 0 l 1
 7 12 l 0
 74 192 327 386 507 451 c 1
 558 860 l 1
 715 860 l 1
 609 0 l 1
 452 0 l 1
342 128 m 0
 376 128 400 99 396 65 c 0
 392 31 360 2 326 2 c 0
 292 2 269 31 273 65 c 0
 277 99 308 128 342 128 c 0
EndSplineSet
EndChar

StartChar: aring
Encoding: 229 229 76
Width: 570
Flags: W
HStem: 0 21G<213 372.438> 840 20G<316.524 476>
LayerCount: 2
Fore
SplineSet
465 442 m 1
 607 356 l 1
 529 248 l 1
 409 320 l 1
 370 0 l 1
 213 0 l 1
 254 330 l 1
 97 248 l 1
 47 356 l 1
 209 442 l 1
 68 527 l 1
 145 636 l 1
 281 553 l 1
 319 860 l 1
 476 860 l 1
 439 563 l 1
 577 636 l 1
 628 527 l 1
 465 442 l 1
EndSplineSet
EndChar

StartChar: ae
Encoding: 230 230 77
Width: 563
Flags: W
HStem: -1 21G<241.062 358>
LayerCount: 2
Fore
SplineSet
447 727 m 1
 358 0 l 1
 282 -1 l 1
 20 127 l 1
 69 242 l 1
 223 173 l 1
 313 903 l 1
 389 904 l 1
 651 773 l 1
 602 658 l 1
 447 727 l 1
EndSplineSet
EndChar

StartChar: eth
Encoding: 240 240 78
Width: 429
Flags: W
HStem: 0 21G<12 166.439> 387 85<233.25 298.449> 840 20G<115.535 270>
VStem: 225 82<395.421 463.918>
LayerCount: 2
Fore
SplineSet
270 860 m 1
 254 737 l 1
 477 430 l 1
 179 123 l 1
 164 0 l 1
 12 0 l 1
 118 860 l 1
 270 860 l 1
330 430 m 1
 233 561 l 1
 201 298 l 1
 330 430 l 1
261 387 m 0
 238 387 222 408 225 430 c 0
 228 452 248 472 271 472 c 0
 294 472 310 452 307 430 c 0
 304 408 284 387 261 387 c 0
EndSplineSet
EndChar

StartChar: odieresis
Encoding: 246 246 79
Width: 885
Flags: W
HStem: 0 21G<4 175 362 522.441 707 878> 841 20G<465.538 626>
LayerCount: 2
Fore
SplineSet
7 12 m 0
 50 155 207 358 420 471 c 1
 468 861 l 1
 626 861 l 1
 578 471 l 1
 765 358 870 154 877 11 c 0
 878 0 l 1
 707 0 l 1
 709 11 l 0
 723 95 641 235 556 295 c 1
 520 0 l 1
 362 0 l 1
 398 295 l 1
 297 234 181 96 175 12 c 0
 175 1 l 1
 4 1 l 1
 7 12 l 0
EndSplineSet
EndChar

StartChar: oslash
Encoding: 248 248 80
Width: 568
Flags: W
HStem: 0 21G<202 361.422> 840 20G<305.508 465>
LayerCount: 2
Fore
SplineSet
359 0 m 1
 202 0 l 1
 232 246 l 1
 74 206 l 1
 58 323 l 1
 248 371 l 1
 253 416 l 1
 82 373 l 1
 65 489 l 1
 268 539 l 1
 308 860 l 1
 465 860 l 1
 430 580 l 1
 603 623 l 1
 608 505 l 1
 415 457 l 1
 410 413 l 1
 573 455 l 1
 603 342 l 1
 394 289 l 1
 359 0 l 1
EndSplineSet
EndChar

StartChar: thorn
Encoding: 254 254 81
Width: 429
Flags: W
HStem: 0 21G<12 166.439> 840 20G<115.535 270>
LayerCount: 2
Fore
SplineSet
270 860 m 1
 254 737 l 1
 477 430 l 1
 179 123 l 1
 164 0 l 1
 12 0 l 1
 118 860 l 1
 270 860 l 1
330 430 m 1
 233 561 l 1
 201 299 l 1
 330 430 l 1
EndSplineSet
EndChar

StartChar: Eng
Encoding: 330 330 82
Width: 542
Flags: W
LayerCount: 2
Fore
SplineSet
224 430 m 1
 309 316 l 1
 420 430 l 1
 337 544 l 1
 224 430 l 1
588 430 m 1
 283 104 l 1
 56 430 l 1
 363 756 l 1
 588 430 l 1
EndSplineSet
EndChar

StartChar: eng
Encoding: 331 331 83
Width: 662
Flags: W
HStem: 0 21G<49 203.459> 840 20G<152.492 307 630 762>
LayerCount: 2
Fore
SplineSet
307 860 m 1
 271 569 l 1
 281 561 288 553 294 545 c 1
 411 600 568 724 630 853 c 0
 633 860 l 1
 762 860 l 1
 757 848 l 0
 696 684 475 508 302 430 c 1
 289 402 269 381 246 366 c 1
 201 0 l 1
 49 0 l 1
 95 377 l 1
 72 401 60 434 65 471 c 0
 70 509 91 542 118 565 c 1
 155 860 l 1
 307 860 l 1
EndSplineSet
EndChar

StartChar: OE
Encoding: 338 338 84
Width: 568
Flags: W
HStem: 0 21G<202 361.422> 840 20G<305.508 465>
LayerCount: 2
Fore
SplineSet
359 0 m 1
 202 0 l 1
 232 246 l 1
 74 206 l 1
 58 323 l 1
 248 371 l 1
 253 416 l 1
 82 373 l 1
 65 489 l 1
 268 539 l 1
 308 860 l 1
 465 860 l 1
 430 580 l 1
 603 623 l 1
 608 505 l 1
 415 457 l 1
 410 413 l 1
 573 455 l 1
 603 342 l 1
 394 289 l 1
 359 0 l 1
EndSplineSet
EndChar

StartChar: oe
Encoding: 339 339 85
Width: 568
Flags: W
HStem: 0 21G<202 361.422> 840 20G<305.508 465>
LayerCount: 2
Fore
SplineSet
359 0 m 1
 202 0 l 1
 232 246 l 1
 74 206 l 1
 58 323 l 1
 248 371 l 1
 253 416 l 1
 82 373 l 1
 65 489 l 1
 268 539 l 1
 308 860 l 1
 465 860 l 1
 430 580 l 1
 603 623 l 1
 608 505 l 1
 415 457 l 1
 410 413 l 1
 573 455 l 1
 603 342 l 1
 394 289 l 1
 359 0 l 1
EndSplineSet
EndChar

StartChar: germandbls
Encoding: 223 223 86
Width: 435
Flags: W
HStem: 865 20G<118.539 273 372.539 527>
LayerCount: 2
Fore
SplineSet
218 438 m 1
 66 438 l 1
 121 885 l 1
 273 885 l 1
 218 438 l 1
472 438 m 1
 320 438 l 1
 375 885 l 1
 527 885 l 1
 472 438 l 1
EndSplineSet
EndChar
